<svg xmlns="http://www.w3.org/2000/svg" xmlns:xlink="http://www.w3.org/1999/xlink"><symbol id="heart" viewBox="0 0 979.494 979.494">
	<g>
		<path d="M964.616,227.519c-15.63-44.595-43.082-84.824-79.389-116.338c-36.341-31.543-80.051-53.048-126.404-62.188    c-17.464-3.444-35.421-5.19-53.371-5.19c-52.371,0-103.306,14.809-147.296,42.827c-26.482,16.867-49.745,38.022-68.908,62.484    c-19.158-24.415-42.405-45.53-68.859-62.364C376.42,58.773,325.52,43.985,273.189,43.985c-0.003,0,0.001,0-0.001,0    c-43.604,0-87.367,10.77-126.546,31.143c-39.15,20.358-73.104,49.978-98.188,85.658C22.752,197.343,7.096,238.278,1.92,282.453    c-4.532,38.687-1.032,80.217,10.405,123.436c22.656,85.615,72.803,163.707,110.882,214.142    c82.795,109.659,196.636,209.196,348.028,304.301l18.085,11.36l18.086-11.36C693.624,807.35,823.602,683.842,904.764,546.749    c46.678-78.844,70.994-149.084,74.343-214.733C980.972,295.429,976.096,260.271,964.616,227.519z M489.322,855.248    c-135.253-87.096-237.398-177.586-311.846-276.192c-34.407-45.571-79.583-115.623-99.414-190.562    c-9.245-34.937-12.14-67.951-8.604-98.128c3.846-32.824,15.494-63.262,34.623-90.47c18.844-26.803,44.41-49.085,73.932-64.436    c29.533-15.357,62.444-23.474,95.176-23.474c39.377,0,77.654,11.113,110.692,32.136c32.204,20.492,58.094,49.399,74.868,83.596    l30.559,62.292l30.505-62.318c16.759-34.238,42.648-63.183,74.872-83.705c33.057-21.054,71.358-32.182,110.767-32.182    c13.544,0,27.074,1.314,40.216,3.905c34.739,6.85,67.585,23.042,94.986,46.826c27.39,23.774,48.064,54.023,59.79,87.476    c8.547,24.385,12.164,50.811,10.75,78.542c-2.772,54.379-24.017,114.42-64.944,183.553    C773.338,635.262,656.457,747.659,489.322,855.248z"/>
	</g>
</symbol><symbol id="milk" viewBox="0 0 487.734 487.734">
  <g>
    <path d="M388.136,137.337l-84.25-97.738l3.164-32.028c0.233-2.476-0.873-4.898-2.922-6.329c-2.053-1.428-4.713-1.638-6.939-0.562   L180.612,56.996c-2.38,1.162-3.895,3.584-3.895,6.219v36.765L100.69,157c-1.734,1.318-2.763,3.363-2.763,5.519v267.77   c0,2.879,1.811,5.493,4.536,6.459l139.042,50.559c0.761,0.299,1.563,0.429,2.357,0.429c1.137,0,2.273-0.294,3.3-0.863   l139.051-75.845c2.212-1.185,3.594-3.523,3.594-6.029V141.834C389.807,140.191,389.214,138.604,388.136,137.337z M190.499,67.534   l101.616-49.077l-1.89,19.04l-99.727,52.715V67.534z M236.967,221.615v249.369l-125.25-45.536V165.97l69.588-52.281l47.299,87.723   c1.246,2.317,3.612,3.636,6.074,3.636c1.104,0,2.221-0.273,3.262-0.831c3.355-1.806,4.609-5.979,2.798-9.353l-48.283-89.547   l2.919-2.184l99.719-52.598l77.259,89.603L236.967,221.615z M376.021,400.899l-125.256,68.335V229.397l125.256-75.362V400.899z    M287.509,281.888c0,0,0,0,0.005,0c8.102,0,18.276-2.861,29.439-8.293c20.965-10.184,44.239-29.678,46.12-45.703   c0.658-5.664-1.438-9.353-3.304-11.453c-2.189-2.478-6.497-5.409-14.528-5.409c-8.107,0-18.281,2.882-29.427,8.321   c-20.964,10.184-44.253,29.68-46.139,45.708c-0.653,5.656,1.438,9.343,3.3,11.448C275.174,278.948,279.477,281.888,287.509,281.888   z M321.845,231.738c9.021-4.392,17.548-6.924,23.396-6.924c2.768,0,4.014,0.597,4.139,1.482   c-0.84,7.168-15.877,23.921-38.466,34.907c-9.017,4.392-17.548,6.894-23.4,6.894h-0.005c-2.758,0-4.014-0.561-4.13-1.429   C284.219,259.477,299.266,242.731,321.845,231.738z M266.171,365.139c-1.731-3.393-0.396-7.569,2.987-9.292l85.328-43.744   c3.369-1.746,7.551-0.396,9.282,2.991c1.736,3.397,0.397,7.547-2.991,9.292l-85.333,43.745c-0.998,0.509-2.081,0.756-3.132,0.756   C269.807,368.887,267.39,367.51,266.171,365.139z M266.171,406.098c-1.731-3.389-0.396-7.57,2.987-9.283l85.328-43.744   c3.369-1.751,7.551-0.378,9.282,2.991c1.736,3.393,0.397,7.542-2.991,9.292l-85.333,43.74c-0.998,0.509-2.081,0.751-3.132,0.751   C269.807,409.845,267.39,408.468,266.171,406.098z M130.802,273.847l1.482,72.33l-5.05-1.811l-1.463-72.326L130.802,273.847z    M189.481,294.784l1.461,72.33l-5.045-1.825L184.43,293L189.481,294.784z M140.272,277.216l1.475,72.326l-2.508-0.887   l-1.505-72.312L140.272,277.216z M194.102,296.458l1.477,72.316l-2.532-0.9l-1.473-72.33L194.102,296.458z M178.967,291.059   l1.477,72.288l-2.518-0.9l-1.486-72.307L178.967,291.059z M166.562,286.597l1.479,72.35l-2.518-0.934l-1.486-72.312   L166.562,286.597z M151.61,281.309l1.501,72.294l-5.05-1.797l-1.487-72.326L151.61,281.309z M173.695,289.16l1.477,72.307   l-5.047-1.801l-1.466-72.303L173.695,289.16z M155.827,282.765l1.482,72.354l-2.506-0.901l-1.491-72.325L155.827,282.765z    M200.841,298.83l1.477,72.33l-2.525-0.877l-1.475-72.345L200.841,298.83z M212.201,302.922l1.458,72.284l-5.028-1.783   l-1.491-72.325L212.201,302.922z M216.392,304.393l1.477,72.325l-2.518-0.914l-1.482-72.289L216.392,304.393z"/>
  </g>
</symbol><symbol id="money-bag" viewBox="0 0 481 481">
	<g>
		<path d="M256.7,301.9h-27.5c-10,0-18.1-8.1-18.1-18.1s8.1-18.1,18.1-18.1h48.4c6.6,0,12-5.4,12-12c0-6.6-5.4-12-12-12h-22.7V225    c0-6.6-5.4-12-12-12s-12,5.4-12,12v16.7h-1.7c-23.2,0-42.1,18.9-42.1,42.1s18.9,42.1,42.1,42.1h27.5c10,0,18.1,8.1,18.1,18.1    s-8.1,18.1-18.1,18.1h-49.3c-6.6,0-12,5.4-12,12c0,6.6,5.4,12,12,12H231v17.1c0,6.6,5.4,12,12,12c6.6,0,12-5.4,12-12v-17.1h2    c0.1,0,0.2,0,0.3,0c23-0.3,41.5-19.1,41.5-42.1C298.8,320.8,279.9,301.9,256.7,301.9z"/>
		<path d="M423.3,274.7c-12.6-29-30-57.1-52-83.4c-26.6-32-53.1-53.4-66.6-63.3l51-94.6c2.5-4.7,1.7-10.5-2.2-14.2    C340.3,6.3,326.3,0,310.7,0c-14.3,0-27.4,5.4-38.8,10.2c-9,3.7-17.5,7.3-24.4,7.3c-2.1,0-3.9-0.3-5.7-1C218,7.8,199.7,2.4,182,2.4    c-22.4,0-41.5,9-60.2,28.2c-3.9,4-4.5,10.3-1.4,15l55,83.1c-13.6,10.1-39.6,31.3-65.7,62.6c-21.9,26.3-39.4,54.4-52,83.4    c-15.8,36.5-23.8,74.6-23.8,113.2c0,51.3,41.8,93.1,93.1,93.1h227c51.3,0,93.1-41.8,93.1-93.1    C447.1,349.3,439.1,311.2,423.3,274.7z M146,40.6c11.6-10,22.7-14.4,36-14.4c14.2,0,30.2,4.8,51.5,12.7c4.4,1.6,9.1,2.4,13.9,2.4    c11.7,0,22.9-4.6,33.6-9.1c10.3-4.3,20.1-8.4,29.6-8.4c4.6,0,11.1,0.8,19.3,6.6l-48,89.2h-83.6L146,40.6z M354,457H127    c-38.1,0-69.1-31-69.1-69.1c0-64.1,23.5-124.9,69.7-180.7c29.2-35.3,58.9-57.2,67.9-63.6h89.8c9.1,6.3,38.7,28.3,67.9,63.6    c46.3,55.8,69.7,116.5,69.7,180.7C423.1,426,392.1,457,354,457z"/>
	</g>
</symbol><symbol id="stack" viewBox="0 0 500.267 500.267">
	<g>
		<ellipse cx="231.39" cy="80.887" rx="225.715" ry="58.463"/>
		<path d="M71.445,201.519c45.102,13.252,101.904,21.06,159.945,20.551c128.078-1.123,187.947-31.016,187.949-31.018    c24.361-10.313,38.244-21.743,38.244-32.15v-47.419c0-0.56-0.062-1.108-0.146-1.649c-7.918,13.171-27.504,23.042-45.553,29.713    v30.067c0,4.142-3.357,7.5-7.5,7.5s-7.5-3.358-7.5-7.5v-25.067c-4.525,1.36-8.623,2.467-12,3.324v36.493c0,5.523-4.477,10-10,10    c-5.521,0-10-4.477-10-10v-32.176c-37.459,7.073-83.588,11.25-133.494,11.25c-118.6,0-215.934-23.564-226.051-53.604    c-0.086,0.541-0.145,1.09-0.145,1.649v48.453C5.195,173.783,29.962,189.327,71.445,201.519z"/>
		<path d="M500.122,238.918c-7.918,13.171-27.504,23.042-45.554,29.713v30.066c0,4.143-3.356,7.5-7.5,7.5    c-4.143,0-7.5-3.357-7.5-7.5v-25.066c-4.524,1.359-8.622,2.467-12,3.324v36.492c0,5.523-4.477,10-10,10c-5.521,0-10-4.477-10-10    v-32.176c-37.459,7.073-83.588,11.25-133.494,11.25c-118.6,0-215.934-23.564-226.05-53.604c-0.086,0.541-0.145,1.09-0.145,1.649    v48.453c0,13.848,24.768,29.393,66.25,41.584c45.102,13.252,101.904,21.059,159.945,20.551    c128.077-1.123,187.946-31.017,187.948-31.019c24.361-10.313,38.244-21.743,38.244-32.149v-47.419    C500.269,240.008,500.208,239.459,500.122,238.918z"/>
		<path d="M226.193,419.188c-49.906,0-96.035-4.177-133.494-11.25v32.177c0,5.522-4.479,10-10,10c-5.523,0-10-4.478-10-10v-36.493    c-3.377-0.857-7.475-1.964-12-3.324v25.066c0,4.143-3.357,7.5-7.5,7.5s-7.5-3.357-7.5-7.5v-30.066    c-18.049-6.671-37.635-16.542-45.553-29.713C0.06,366.125,0,366.674,0,367.232v47.419c0,10.407,13.883,21.837,38.244,32.15    c0.002,0.002,59.871,29.895,187.949,31.018c58.042,0.51,114.844-7.299,159.945-20.551c41.482-12.19,66.25-27.734,66.25-41.583    v-48.451c0-0.561-0.059-1.108-0.145-1.649C442.126,395.622,344.792,419.188,226.193,419.188z"/>
		<path d="M238.841,244.166c-58.02,1.559-114.844-7.299-159.943-20.551c-11.277-3.314-21.309-6.878-29.953-10.586    c4.43,31.278,103.705,56.283,225.545,56.283c124.659,0,225.715-26.175,225.715-58.464c0-11.534-12.902-22.288-35.168-31.349v1.498    c0,10.931-15.306,22.991-41.99,33.699C423.046,214.697,364.335,240.796,238.841,244.166z"/>
		<path d="M226.779,396.084c121.84,0,221.115-25.006,225.545-56.283c-8.646,3.708-18.677,7.271-29.951,10.586    c-45.104,13.252-101.924,22.109-159.945,20.551c-125.494-3.371-184.203-29.47-184.203-29.47    c-26.686-10.708-41.992-22.769-41.992-33.698v-1.498c-22.264,9.061-35.17,19.813-35.17,31.35    C1.062,369.908,102.118,396.084,226.779,396.084z"/>
	</g>
</symbol><symbol id="target" viewBox="0 0 953 953">
	<g>
		<path d="M430.589,953c236.6,0,428.401-191.801,428.401-428.4c0-72.799-18.102-141.299-50.102-201.299c-3.5,0.5-7.1,0.7-10.6,0.7    c-2,0-4.1-0.1-6.199-0.2l-54.5-4.2l-39.201,39.2c29.9,48.2,47.201,105,47.201,165.799c0,173.9-141,314.9-314.901,314.9    c-173.899,0-315-141-315-314.9c0-173.899,141-314.899,314.9-314.899c60.901,0,117.7,17.3,165.799,47.2l35.5-35.5l-4.799-62.5    c-0.4-5-0.301-10,0.199-14.9c-58.9-30.5-125.799-47.8-196.799-47.8c-236.5,0-428.3,191.8-428.3,428.399S193.989,953,430.589,953z"/>
		<path d="M430.589,413.9c2.8,0,5.6,0.101,8.4,0.3l79.1-79.1l1.699-1.7c-27.1-12.7-57.299-19.8-89.2-19.8    c-116.5,0-210.9,94.4-210.9,210.9c0,116.5,94.4,211,210.9,211c116.5,0,210.901-94.4,210.901-210.9    c0-31.9-7.102-62.099-19.801-89.2l-1.699,1.7l-79.102,79.099c0.201,2.801,0.301,5.602,0.301,8.4    c0,61.1-49.5,110.701-110.7,110.701c-61.2,0-110.601-49.602-110.601-110.701C319.889,463.5,369.489,413.9,430.589,413.9z"/>
		<path d="M872.089,142.6l25.4-25.4c11.6-11.6,11.6-30.3,0-41.9l-17.602-17.7c-5.799-5.8-13.398-8.7-20.898-8.7    s-15.201,2.9-20.9,8.7l-29.1,29.1l-6-77.5c-0.4-5.7-5.102-9.2-10-9.2c-2.5,0-5,0.9-7,2.9l-114.5,114.5    c-10.301,10.3-15.602,24.6-14.5,39.2l0.299,4.5l5.5,71.7l-41.4,41.4l-74.5,74.5l-1.699,1.7l-72.1,72.101l-32,32    c-4.2,4.199-6.8,9.8-7.2,15.699l-2,25.101c-1.2,14.6,10.4,27,24.9,27c0.399,0,0.8,0,1.3,0l26.5-1.301    c6.199-0.301,12.1-2.9,16.4-7.301L532.689,482l72.1-72.1l1.701-1.7l74.5-74.5l45-45l65.398,5l2.9,0.2c1.301,0.1,2.6,0.1,3.801,0.1    c13.199,0,25.9-5.2,35.4-14.6L947.888,165c6-6,2.201-16.4-6.299-17L872.089,142.6z"/>
	</g>
</symbol></svg>